<svg xmlns="http://www.w3.org/2000/svg" viewBox="0 0 532.07 532.07"><defs><style>.a{fill:#ffba04;}.b{fill:#026634;}</style></defs><rect class="a" x="242.93" y="242.93" width="46.2" height="46.2" transform="translate(-110.2 266.04) rotate(-45)"/><rect class="a" x="249.54" y="249.54" width="33" height="33" transform="translate(-110.2 266.04) rotate(-45)"/><rect class="a" x="342.88" y="156.19" width="33" height="33" transform="translate(-16.85 304.7) rotate(-45)"/><rect class="a" x="242.93" y="9.57" width="46.2" height="46.2" transform="translate(54.82 197.69) rotate(-45)"/><rect class="a" x="249.54" y="16.17" width="33" height="33" transform="translate(54.82 197.69) rotate(-45)"/><path class="b" d="M312.71,242.7l23.34-23.34-112-112A6.6,6.6,0,0,1,224,98L242.7,79.34,219.36,56,196,79.34A33,33,0,0,0,196,126Z"/><path class="b" d="M289.37,79.34,312.71,56l23.34,23.33a33,33,0,0,1,0,46.68l-23.34,23.33L289.37,126,308,107.35A6.6,6.6,0,0,0,308,98Z"/><rect class="a" x="156.19" y="156.19" width="33" height="33" transform="translate(-71.53 172.69) rotate(-45)"/><rect class="a" x="9.57" y="242.93" width="46.2" height="46.2" transform="translate(-178.55 101.02) rotate(-45)"/><rect class="a" x="16.17" y="249.54" width="33" height="33" transform="translate(-178.55 101.02) rotate(-45)"/><path class="b" d="M242.7,219.36,219.36,196l-112,112A6.6,6.6,0,0,1,98,308L79.34,289.37,56,312.71l23.33,23.34a33,33,0,0,0,46.68,0Z"/><path class="b" d="M79.34,242.7,56,219.36,79.34,196A33,33,0,0,1,126,196l23.33,23.33L126,242.7,107.35,224A6.6,6.6,0,0,0,98,224Z"/><rect class="a" x="156.19" y="342.88" width="33" height="33" transform="translate(-203.54 227.37) rotate(-45)"/><rect class="a" x="242.93" y="476.3" width="46.2" height="46.2" transform="translate(-275.21 334.39) rotate(-45)"/><rect class="a" x="249.54" y="482.9" width="33" height="33" transform="translate(-275.21 334.39) rotate(-45)"/><path class="b" d="M219.36,289.37,196,312.71l112,112a6.6,6.6,0,0,1,0,9.34l-18.67,18.67,23.34,23.34,23.34-23.34a33,33,0,0,0,0-46.67Z"/><path class="b" d="M242.7,452.73l-23.34,23.34L196,452.73a33,33,0,0,1,0-46.67l23.33-23.34,23.34,23.34L224,424.72a6.6,6.6,0,0,0,0,9.34Z"/><rect class="a" x="342.88" y="342.88" width="33" height="33" transform="translate(-148.86 359.38) rotate(-45)"/><rect class="a" x="476.3" y="242.93" width="46.2" height="46.2" transform="translate(-41.84 431.05) rotate(-45)"/><rect class="a" x="482.9" y="249.54" width="33" height="33" transform="translate(-41.84 431.05) rotate(-45)"/><path class="b" d="M289.37,312.71l23.34,23.34,112-112a6.6,6.6,0,0,1,9.34,0l18.67,18.67,23.34-23.34L452.73,196a33,33,0,0,0-46.67,0Z"/><path class="b" d="M452.73,289.37l23.34,23.34-23.34,23.34a33,33,0,0,1-46.67,0l-23.34-23.34,23.34-23.34L424.72,308a6.6,6.6,0,0,0,9.34,0Z"/></svg>