<svg xmlns="http://www.w3.org/2000/svg" viewBox="0 0 300 300"><defs><style>.a{fill:#026634;}.b{fill:#037c3c;}</style></defs><rect class="a" width="300" height="300"/><path class="b" d="M72.19,137.1A78.93,78.93,0,0,1,137.1,72.19V34.72A116,116,0,0,0,34.72,137.1Z"/><path class="b" d="M162.9,72.19a78.93,78.93,0,0,1,64.91,64.91h37.47A116,116,0,0,0,162.9,34.72Z"/><path class="b" d="M137.1,227.81A78.93,78.93,0,0,1,72.19,162.9H34.72A116,116,0,0,0,137.1,265.28Z"/><path class="b" d="M227.81,162.9a78.93,78.93,0,0,1-64.91,64.91v37.47A116,116,0,0,0,265.28,162.9Z"/></svg>