<svg xmlns="http://www.w3.org/2000/svg" viewBox="0 0 300 300"><defs><style>.a{fill:#026634;}.b{fill:#037c3c;}</style></defs><rect class="a" width="300" height="300"/><rect class="a" width="300" height="300"/><path class="b" d="M0,120.74v39.53H0A139.73,139.73,0,0,1,139.73,300h39.53A179.26,179.26,0,0,0,0,120.74Z"/><path class="b" d="M0,213.74V300H86.26A86.26,86.26,0,0,0,0,213.74Z"/><path class="b" d="M299.92,139.73A139.73,139.73,0,0,1,160.19,0H120.66A179.26,179.26,0,0,0,299.92,179.26V139.73Z"/><path class="b" d="M299.92,86.26V0H213.66A86.26,86.26,0,0,0,299.92,86.26Z"/></svg>